<svg xmlns="http://www.w3.org/2000/svg" viewBox="0 0 219 95.72"><defs><style>.cls-1{fill:#00aeef;}.cls-10,.cls-11,.cls-12,.cls-13,.cls-2,.cls-3,.cls-4,.cls-5,.cls-6,.cls-7,.cls-8,.cls-9{fill:none;stroke:#1c75bc;stroke-miterlimit:10;}.cls-2{stroke-width:7px;}.cls-11,.cls-13,.cls-3,.cls-5,.cls-7,.cls-9{stroke-linecap:round;}.cls-4{stroke-width:4.28px;}.cls-5{stroke-width:0.61px;}.cls-6{stroke-width:3.17px;}.cls-7{stroke-width:0.45px;}.cls-8{stroke-width:2.08px;}.cls-9{stroke-width:0.3px;}.cls-10{stroke-width:1.5px;}.cls-11{stroke-width:0.21px;}.cls-12{stroke-width:0.9px;}.cls-13{stroke-width:0.13px;}</style></defs><g id="Layer_2" data-name="Layer 2"><g id="Layer_1-2" data-name="Layer 1"><path class="cls-1" d="M149,58.84c-.45-.73-.2-1.28.64-1.55l.25-.08c.67-.22,1,0,1.59.57A3.87,3.87,0,0,0,154.3,59c1.45,0,2.32-.61,2.32-1.63,0-2.68-7.54-.93-7.54-6.09,0-2.38,2-4,4.93-4a5.85,5.85,0,0,1,5,2.24c.5.81.27,1.39-.61,1.6l-.31.07c-.83.2-1.13-.14-1.7-.64a3.16,3.16,0,0,0-2.24-.88c-1.32,0-2.13.59-2.13,1.53,0,2.92,7.61.89,7.61,6.07,0,2.47-2.17,4.1-5.29,4.1A6.29,6.29,0,0,1,149,58.84Z" transform="translate(-0.26 -3.87)"/><path class="cls-1" d="M172.44,61.23h-.53a1.41,1.41,0,0,1-1.44-1L170,58.84H164l-.48,1.36a1.41,1.41,0,0,1-1.45,1h-.51c-.92,0-1.34-.6-1-1.46l4.49-11.29a1.43,1.43,0,0,1,1.46-1h.9a1.44,1.44,0,0,1,1.46,1l4.51,11.29C173.76,60.63,173.36,61.23,172.44,61.23ZM167,50.75l-2.16,5.88h4.32Z" transform="translate(-0.26 -3.87)"/><path class="cls-1" d="M175.21,60V48.74a1.14,1.14,0,0,1,1.26-1.26h6a1.14,1.14,0,0,1,1.27,1.26v.12a1.14,1.14,0,0,1-1.27,1.27h-4.26v3.36h3.91a1.13,1.13,0,0,1,1.27,1.21v0A1.13,1.13,0,0,1,182.12,56h-3.91v4a1.14,1.14,0,0,1-1.27,1.26h-.47A1.14,1.14,0,0,1,175.21,60Z" transform="translate(-0.26 -3.87)"/><path class="cls-1" d="M185.69,60V48.74A1.14,1.14,0,0,1,187,47.48h6.57a1.14,1.14,0,0,1,1.26,1.26v.15a1.14,1.14,0,0,1-1.26,1.26h-4.84v3h4.5c.81,0,1.26.42,1.26,1.16v0c0,.76-.45,1.16-1.26,1.16h-4.5v3.1h4.84a1.14,1.14,0,0,1,1.26,1.27V60a1.14,1.14,0,0,1-1.26,1.26H187A1.14,1.14,0,0,1,185.69,60Z" transform="translate(-0.26 -3.87)"/><path class="cls-1" d="M199.61,60V50.15h-2.09a1.14,1.14,0,0,1-1.27-1.26v-.15a1.14,1.14,0,0,1,1.27-1.26h7.16A1.14,1.14,0,0,1,206,48.74v.15a1.14,1.14,0,0,1-1.27,1.26h-2.07V60a1.14,1.14,0,0,1-1.27,1.26h-.46A1.14,1.14,0,0,1,199.61,60Z" transform="translate(-0.26 -3.87)"/><path class="cls-1" d="M211.47,60V57.48L206.92,49c-.46-.88-.1-1.5.87-1.5h.64a1.53,1.53,0,0,1,1.48.94l3.05,6,3.09-6a1.51,1.51,0,0,1,1.47-.94h.64c1,0,1.37.64.91,1.5l-4.6,8.5V60a1.14,1.14,0,0,1-1.27,1.26h-.47A1.13,1.13,0,0,1,211.47,60Z" transform="translate(-0.26 -3.87)"/><path class="cls-1" d="M12.22,19.84H11.7a1.4,1.4,0,0,1-1.44-1l-.5-1.36H3.82l-.49,1.36a1.41,1.41,0,0,1-1.45,1h-.5c-.93,0-1.34-.6-1-1.46L4.87,7.09a1.43,1.43,0,0,1,1.46-1h.9a1.43,1.43,0,0,1,1.46,1L13.2,18.38A1,1,0,0,1,12.22,19.84ZM6.78,9.35,4.63,15.24H9Z" transform="translate(-0.26 -3.87)"/><path class="cls-1" d="M15,18.57V7.35a1.14,1.14,0,0,1,1.27-1.27h.67a1.65,1.65,0,0,1,1.53.85l5.38,8.2V7.35A1.14,1.14,0,0,1,25.1,6.08h.47a1.14,1.14,0,0,1,1.27,1.27V18.57a1.14,1.14,0,0,1-1.27,1.27h-.65A1.69,1.69,0,0,1,23.4,19L18,10.76v7.81a1.14,1.14,0,0,1-1.27,1.27h-.47A1.14,1.14,0,0,1,15,18.57Z" transform="translate(-0.26 -3.87)"/><path class="cls-1" d="M29.66,18.57V7.35a1.14,1.14,0,0,1,1.26-1.27h2.66c5.57,0,7.74,2.37,7.74,6.89s-2.17,6.87-7.74,6.87H30.92A1.14,1.14,0,0,1,29.66,18.57Zm8.63-5.63c0-2.84-1.12-4.21-4.61-4.21h-1v8.44h1C37.17,17.17,38.29,15.81,38.29,12.94Z" transform="translate(-0.26 -3.87)"/><path class="cls-1" d="M53,19.84h-.56a1.58,1.58,0,0,1-1.48-.92l-2-3.49-.65,0H46.67v3.12a1.14,1.14,0,0,1-1.27,1.27h-.49a1.14,1.14,0,0,1-1.27-1.27V7.35a1.14,1.14,0,0,1,1.27-1.27h3.4c4.45,0,6,1.49,6,4.63a4.1,4.1,0,0,1-2.62,4.17l2.12,3.45C54.42,19.3,54.15,19.84,53,19.84ZM51.3,10.91c0-1.71-.95-2.3-3.07-2.3H46.65v4.57h1.58C50.35,13.18,51.3,12.63,51.3,10.91Z" transform="translate(-0.26 -3.87)"/><path class="cls-1" d="M56.68,18.57V7.35a1.14,1.14,0,0,1,1.26-1.27h6.57a1.14,1.14,0,0,1,1.27,1.27V7.5a1.14,1.14,0,0,1-1.27,1.26H59.67v3h4.5c.81,0,1.26.41,1.26,1.16v0c0,.75-.45,1.16-1.26,1.16h-4.5v3.1h4.84a1.14,1.14,0,0,1,1.27,1.26v.14a1.14,1.14,0,0,1-1.27,1.27H57.94A1.14,1.14,0,0,1,56.68,18.57Z" transform="translate(-0.26 -3.87)"/><path class="cls-1" d="M70.78,18.8,67.08,7.53c-.29-.86.13-1.43,1-1.43h.62a1.34,1.34,0,0,1,1.41,1.06l2.53,8.46,2.37-8.44A1.33,1.33,0,0,1,76.47,6.1h.19a1.36,1.36,0,0,1,1.42,1.08l2.37,8.44L83,7.16A1.35,1.35,0,0,1,84.42,6.1H85c.92,0,1.35.56,1.06,1.43L82.36,18.8a1.38,1.38,0,0,1-1.44,1h-.59a1.34,1.34,0,0,1-1.41-1.09l-2.36-8.38-2.34,8.38a1.34,1.34,0,0,1-1.42,1.09h-.58A1.39,1.39,0,0,1,70.78,18.8Z" transform="translate(-0.26 -3.87)"/><path class="cls-1" d="M87.38,17.45c-.45-.74-.2-1.28.64-1.55l.25-.09c.68-.21,1,0,1.59.57a3.84,3.84,0,0,0,2.87,1.25c1.46,0,2.32-.61,2.32-1.64,0-2.67-7.54-.92-7.54-6.08,0-2.38,2-4,4.93-4a5.85,5.85,0,0,1,5,2.24c.5.81.27,1.38-.6,1.59l-.32.08c-.83.2-1.13-.15-1.7-.65a3.19,3.19,0,0,0-2.24-.87c-1.32,0-2.13.58-2.13,1.53,0,2.91,7.62.88,7.62,6.07,0,2.47-2.18,4.09-5.3,4.09A6.31,6.31,0,0,1,87.38,17.45Z" transform="translate(-0.26 -3.87)"/><path class="cls-1" d="M92.57,39.66V28.44a1.14,1.14,0,0,1,1.26-1.27h2.75c4.8,0,6.61,1.49,6.61,5.09s-1.81,5-6.58,5h-1v2.37a1.14,1.14,0,0,1-1.26,1.27h-.48A1.14,1.14,0,0,1,92.57,39.66Zm7.56-7.45c0-1.76-.94-2.43-3.06-2.43h-1.5v4.88h1.5C99.19,34.66,100.13,34,100.13,32.21Z" transform="translate(-0.26 -3.87)"/><path class="cls-1" d="M141.91,39.66V28.44a1.14,1.14,0,0,1,1.26-1.27h.48a1.14,1.14,0,0,1,1.26,1.27v9.82h3.83A1.14,1.14,0,0,1,150,39.52v.14a1.14,1.14,0,0,1-1.27,1.27h-5.57A1.14,1.14,0,0,1,141.91,39.66Z" transform="translate(-0.26 -3.87)"/><circle class="cls-2" cx="104.25" cy="76.6" r="15.62"/><path class="cls-3" d="M104.51,70.93A9.54,9.54,0,0,0,95,80.47" transform="translate(-0.26 -3.87)"/><circle class="cls-4" cx="127.96" cy="52.9" r="9.54"/><path class="cls-5" d="M128.22,50.94a5.82,5.82,0,0,0-5.83,5.83" transform="translate(-0.26 -3.87)"/><circle class="cls-6" cx="114.39" cy="30.58" r="7.08"/><path class="cls-7" d="M114.65,30.12a4.32,4.32,0,0,0-4.32,4.33" transform="translate(-0.26 -3.87)"/><circle class="cls-8" cx="131.23" cy="24.75" r="5.27"/><path class="cls-9" d="M131.49,25.39a3.22,3.22,0,0,0-3.22,3.22" transform="translate(-0.26 -3.87)"/><circle class="cls-10" cx="120.92" cy="10.12" r="3.34"/><path class="cls-11" d="M121.18,11.94a2,2,0,0,0-2,2" transform="translate(-0.26 -3.87)"/><circle class="cls-12" cx="127.96" cy="2.46" r="2.01"/><path class="cls-13" d="M128.22,5.1A1.23,1.23,0,0,0,127,6.33" transform="translate(-0.26 -3.87)"/></g></g></svg>